<svg id="capital" xmlns="http://www.w3.org/2000/svg" width="52.459" height="52.459" viewBox="0 0 52.459 52.459">
  <path id="Path_785" data-name="Path 785" d="M0,0H52.459V52.459H0Z" fill="none"/>
  <path id="Path_786" data-name="Path 786" d="M3.186,37.973V13.929H1V9.557H7.557V5.186A2.186,2.186,0,0,1,9.743,3h30.6A2.186,2.186,0,0,1,42.53,5.186V9.557h6.557v4.372H46.9V37.973h2.186v4.372H1V37.973Zm24.044,0v-15.3H22.858v15.3Zm-10.929,0v-15.3H11.929v15.3Zm21.858,0v-15.3H33.787v15.3Zm-26.23-30.6V9.557h26.23V7.372Z" transform="translate(1.186 3.557)" fill="#ced3d8"/>
</svg>
