<svg xmlns="http://www.w3.org/2000/svg" width="43.716" height="43.716" viewBox="0 0 43.716 43.716">
  <path id="currency" d="M23.858,45.716A21.858,21.858,0,1,1,45.716,23.858,21.857,21.857,0,0,1,23.858,45.716Zm0-4.372A17.486,17.486,0,1,0,6.372,23.858,17.486,17.486,0,0,0,23.858,41.344ZM16.208,28.23H28.23a1.093,1.093,0,1,0,0-2.186H19.486a5.464,5.464,0,1,1,0-10.929h2.186V10.743h4.372v4.372h5.464v4.372H19.486a1.093,1.093,0,1,0,0,2.186H28.23a5.464,5.464,0,0,1,0,10.929H26.044v4.372H21.672V32.6H16.208Z" transform="translate(-2 -2)" fill="#ced3d8"/>
</svg>
