<svg id="lang" xmlns="http://www.w3.org/2000/svg" width="52.459" height="52.459" viewBox="0 0 52.459 52.459">
  <path id="Path_787" data-name="Path 787" d="M0,0H52.459V52.459H0Z" fill="none"/>
  <path id="Path_788" data-name="Path 788" d="M23.858,45.716A21.858,21.858,0,1,1,45.716,23.858,21.857,21.857,0,0,1,23.858,45.716Zm-5.005-5.1a39.126,39.126,0,0,1-3.679-14.573H6.507A17.5,17.5,0,0,0,18.852,40.616Zm.7-14.573A34.786,34.786,0,0,0,23.858,40.8a34.765,34.765,0,0,0,4.306-14.758H19.552Zm21.657,0H32.542a39.125,39.125,0,0,1-3.679,14.573A17.5,17.5,0,0,0,41.209,26.044Zm-34.7-4.372h8.667A39.126,39.126,0,0,1,18.852,7.1,17.5,17.5,0,0,0,6.507,21.672Zm13.047,0h8.608a34.765,34.765,0,0,0-4.3-14.758,34.765,34.765,0,0,0-4.306,14.758ZM28.863,7.1a39.126,39.126,0,0,1,3.679,14.573h8.667A17.5,17.5,0,0,0,28.863,7.1Z" transform="translate(2.372 2.372)" fill="#ced3d8"/>
</svg>
